<?xml version="1.0" encoding="iso-8859-1"?>
<!-- Generator: Adobe Illustrator 19.0.0, SVG Export Plug-In . SVG Version: 6.00 Build 0)  -->
<svg version="1.1" id="Capa_1" xmlns="http://www.w3.org/2000/svg" xmlns:xlink="http://www.w3.org/1999/xlink" x="0px" y="0px"
	 viewBox="0 0 512 512" style="enable-background:new 0 0 512 512;" xml:space="preserve">
<path style="fill:#A3D9F6;" d="M377,330c-19.818,0-39.48-4.39-57.318-12.749C299.515,325.715,278.129,330,256,330
	c-28.573,0-56.36-7.314-81.017-21.241C156.207,322.525,133.521,330,110,330C49.346,330,0,280.654,0,220
	c0-57.371,44.145-104.624,100.252-109.572C123.208,44.88,185.733,0,256,0c26.395,0,51.621,6.051,74.976,17.984
	c20.056,10.248,38.051,24.741,52.425,42.166C454.881,63.501,512,122.705,512,195C512,269.439,451.439,330,377,330z"/>
<path style="fill:#84CAFF;" d="M383.4,60.15c-14.374-17.425-32.369-31.918-52.425-42.166C307.621,6.051,282.395,0,256,0v330
	c22.129,0,43.515-4.285,63.682-12.749C337.52,325.61,357.182,330,377,330c74.439,0,135-60.561,135-135
	C512,122.705,454.881,63.501,383.4,60.15z"/>
<path style="fill:#FFB74F;" d="M401,512H116c-24.813,0-45-20.187-45-45V215h119.035l50,29H401V512z"/>
<rect x="256" y="244" style="fill:#FF9A00;" width="145" height="268"/>
<path style="fill:#FFDB2D;" d="M416,512H116l0,0c8.271,0,15-6.729,15-15V292h330v175C461,491.813,440.813,512,416,512z"/>
<path style="fill:#FEC000;" d="M256,292v220h160c24.813,0,45-20.187,45-45V292H256z"/>
<g>
</g>
<g>
</g>
<g>
</g>
<g>
</g>
<g>
</g>
<g>
</g>
<g>
</g>
<g>
</g>
<g>
</g>
<g>
</g>
<g>
</g>
<g>
</g>
<g>
</g>
<g>
</g>
<g>
</g>
</svg>
